<svg width="563" height="596" viewBox="0 0 563 596" fill="none" xmlns="http://www.w3.org/2000/svg">
    <path d="M369.067 463.912C366.993 459.876 368.36 455.713 369.786 453.899L370.442 453.076C375.644 446.557 391.477 426.726 385.988 391.852C377.88 340.346 398.411 315.447 420.329 309.312C438.576 304.203 448.075 310.908 453.631 316.383C463.403 326.013 461.01 335.894 457.98 348.364C457.313 351.11 456.623 354.012 456.02 357.01C455.317 360.51 454.964 364.543 454.972 368.751C454.973 369.303 455.42 369.998 455.972 369.998C455.973 369.998 455.973 369.998 455.974 369.998C456.017 369.998 456.058 369.986 456.1 369.978L456.393 373.363C456.305 373.345 456.218 373.323 456.123 373.332C455.572 373.371 455.157 373.85 455.197 374.4C455.321 376.148 455.501 377.979 455.731 379.841C455.793 380.348 456.224 380.719 456.722 380.719C456.763 380.719 456.804 380.717 456.845 380.711C456.909 380.703 456.963 380.671 457.024 380.651L457.214 382.85C457.191 382.851 457.168 382.842 457.145 382.846C456.599 382.932 456.226 383.443 456.311 383.989C458.241 396.339 461.905 409.003 465.137 420.177C468.018 430.136 470.506 438.738 471.003 444.52C471.408 449.233 469.978 453.488 466.751 457.166C458.302 466.799 437.624 472.62 406.954 473.999C379.144 475.252 371.281 468.217 369.067 463.912Z" fill="#263238"/>
    <path d="M300.459 236.653C302.154 239.704 302.43 242.404 301.275 244.678C299.627 247.925 295.614 249.385 294.626 249.508C292.93 249.72 292.412 252.669 292.648 255.32C293.136 260.798 296.847 266.481 305.803 265.999C314.816 265.516 316.425 261.141 317.719 257.625C318.541 255.393 319.19 253.629 321.524 252.962C327.168 251.349 330.622 253.528 331.419 254.118C332.225 256.07 333.944 258.286 336.533 260.71C336.936 261.087 337.569 261.066 337.946 260.664C337.961 260.649 337.964 260.629 337.977 260.613L341.376 263.436C341.365 263.449 341.35 263.454 341.34 263.468C341.008 263.909 341.096 264.536 341.537 264.869C346.283 268.444 351.349 271.455 353.365 272.616C352.143 274.438 348.284 279.122 338.863 283.079C329.268 287.107 319.274 285.864 315.397 285.137L315.404 285.134C315.935 284.157 316.04 282.958 315.678 281.648C314.476 277.286 308.31 272.377 301.049 272.014C300.085 271.966 299.114 271.937 298.141 271.898C288.926 271.528 280.222 271.2 275.081 263.489C270.39 256.451 274.422 239.964 275.985 234.369C278.938 237.788 283.983 241.002 286.905 241.002C286.905 241.002 286.907 241.002 286.908 241.002C288.169 241.002 289.655 240.408 289.2 238.944C288.563 236.894 290.3 234.917 292.381 234.013C294.839 232.945 298.428 232.996 300.459 236.653ZM206.942 366.857C200.352 368.148 197.767 371.277 196.759 373.675C195.831 375.883 196.133 377.662 196.327 378.07C197.168 378.563 199.437 378.501 201.448 378.445C204.752 378.353 208.162 378.259 209.486 380.146C210.82 382.047 250.851 415.56 291.428 423.706C291.956 423.811 292.295 424.316 292.212 424.844L297.209 425.643C297.292 425.124 297.749 424.761 298.289 424.804C302.606 425.247 308.345 424.468 310.038 424.056C331.722 418.779 327.912 385.845 327.011 379.692C323.672 380.356 312.984 382.262 303.245 381.62C295.299 381.093 285.872 379.303 285.614 379.239C289.937 394.438 288.516 395.069 287.741 395.414C285.617 396.346 231.215 381.501 227.416 377.158C226.745 376.391 226.119 375.455 225.456 374.464C222.498 370.04 218.815 364.531 206.942 366.857Z" fill="#FFD2BB"/>
    <path d="M147.999 331.526C147.551 331.526 147.143 331.222 147.03 330.768C146.896 330.232 147.222 329.689 147.758 329.555L163.884 325.532C164.42 325.405 164.963 325.725 165.096 326.261C165.23 326.797 164.904 327.34 164.368 327.474L148.242 331.497C148.161 331.517 148.08 331.526 147.999 331.526ZM149.242 334.497L181.282 326.503C181.818 326.369 182.144 325.826 182.01 325.29C181.877 324.755 181.334 324.434 180.798 324.561L148.758 332.555C148.222 332.689 147.896 333.232 148.03 333.768C148.143 334.222 148.551 334.526 148.999 334.526C149.08 334.526 149.161 334.517 149.242 334.497ZM162.573 334.67L224.492 319.221C225.028 319.087 225.354 318.544 225.22 318.008C225.087 317.473 224.543 317.153 224.008 317.279L162.089 332.728C161.553 332.862 161.227 333.405 161.361 333.941C161.474 334.395 161.882 334.699 162.33 334.699C162.411 334.699 162.492 334.69 162.573 334.67ZM152.234 340.499L168.234 336.647C168.771 336.517 169.102 335.977 168.972 335.44C168.843 334.903 168.302 334.575 167.766 334.702L151.766 338.555C151.229 338.685 150.898 339.225 151.028 339.762C151.138 340.22 151.548 340.528 151.999 340.528C152.077 340.526 152.155 340.518 152.234 340.499ZM182.075 336.553L202.875 331.363C203.411 331.229 203.737 330.686 203.603 330.15C203.47 329.615 202.926 329.296 202.391 329.421L181.591 334.611C181.055 334.745 180.729 335.288 180.863 335.824C180.976 336.278 181.384 336.582 181.832 336.582C181.913 336.582 181.994 336.572 182.075 336.553ZM197.694 342.903L213.96 338.844C214.496 338.71 214.822 338.167 214.688 337.631C214.555 337.096 214.012 336.775 213.476 336.902L197.21 340.961C196.674 341.095 196.348 341.638 196.482 342.174C196.595 342.628 197.003 342.932 197.451 342.932C197.532 342.933 197.613 342.923 197.694 342.903ZM202.874 338.36L218.358 334.497C218.894 334.363 219.22 333.82 219.086 333.284C218.953 332.749 218.412 332.429 217.874 332.555L202.39 336.418C201.854 336.552 201.528 337.095 201.662 337.631C201.775 338.085 202.183 338.389 202.631 338.389C202.712 338.39 202.793 338.38 202.874 338.36ZM160.242 355.497L171.266 352.746C171.802 352.612 172.128 352.069 171.994 351.533C171.861 350.998 171.32 350.679 170.782 350.804L159.758 353.555C159.222 353.689 158.896 354.232 159.03 354.768C159.143 355.222 159.551 355.526 159.999 355.526C160.08 355.526 160.161 355.517 160.242 355.497ZM252 108C252 106.896 251.104 106 250 106H150C148.895 106 148 106.896 148 108C148 109.104 148.895 110 150 110H250C251.104 110 252 109.104 252 108ZM231 120C231 118.896 230.104 118 229 118H126C124.896 118 124 118.896 124 120C124 121.104 124.896 122 126 122H229C230.104 122 231 121.104 231 120ZM207 155C207 153.895 206.104 153 205 153H160C158.895 153 158 153.895 158 155C158 156.105 158.895 157 160 157H205C206.104 157 207 156.105 207 155ZM265 167C265 165.895 264.104 165 263 165H234C232.895 165 232 165.895 232 167C232 168.105 232.895 169 234 169H263C264.104 169 265 168.105 265 167ZM230 179C230 177.895 229.104 177 228 177H160C158.895 177 158 177.895 158 179C158 180.105 158.895 181 160 181H228C229.104 181 230 180.105 230 179ZM154 209C154 207.895 153.104 207 152 207H126C124.896 207 124 207.895 124 209C124 210.105 124.896 211 126 211H152C153.104 211 154 210.105 154 209ZM202 232C202 230.895 201.104 230 200 230H189C187.895 230 187 230.895 187 232C187 233.105 187.895 234 189 234H200C201.104 234 202 233.105 202 232ZM207 251C207 249.895 206.104 249 205 249H143C141.895 249 141 249.895 141 251C141 252.105 141.895 253 143 253H205C206.104 253 207 252.105 207 251ZM248 263C248 261.896 247.104 261 246 261H218C216.895 261 216 261.896 216 263C216 264.104 216.895 265 218 265H246C247.104 265 248 264.104 248 263ZM171 275C171 273.896 170.104 273 169 273H143C141.895 273 141 273.896 141 275C141 276.104 141.895 277 143 277H169C170.104 277 171 276.104 171 275ZM301.473 195.091L304.237 195.126C304.231 195.634 304.596 196.076 305.112 196.133C311.984 196.893 317.561 201.059 320.414 207.564C322.685 212.739 324.461 213.347 327.405 213.976C329.536 214.431 332.187 214.997 336.526 218.6C340.948 222.272 343.34 228.653 342.768 235.251C342.151 242.383 338.291 248.536 332.188 252.257C330.182 251.455 326.219 249.156 320.922 251.039C317.676 252.192 316.712 254.501 315.817 256.935C314.557 260.357 313.381 263.59 305.683 264.002C299.436 264.328 296.735 261.334 295.566 258.757C294.091 255.505 294.601 252.157 295.065 251.463C296.723 251.164 301.118 249.404 303.057 245.584C304.531 242.682 304.245 239.351 302.207 235.682C299.697 231.164 295.062 230.667 291.585 232.178C288.49 233.523 286.718 236.227 287.123 238.821C281 237.688 275.781 230.713 275.781 230.713C271.185 224.812 268.031 218.782 267.59 213.792C269.219 215.283 272.523 217.862 275.306 215.188C276.276 214.257 277.295 212.803 278.475 211.12C282.426 205.482 288.398 196.962 300.558 196.078C301.08 196.038 301.465 195.604 301.473 195.091Z" fill="#263238"/>
    <path d="M136.082 327.298C137.724 331.021 157.112 370.966 161.615 380.239C162.018 379.236 162.661 378.594 162.693 378.547C162.937 378.188 200.326 367.111 200.326 367.111C201.944 366.19 204.25 365.156 210.241 364.407L248.899 353.079C248.853 352.97 248.803 352.857 248.752 352.742C246.25 347.135 226.822 301.828 226.578 301.394C225.547 299.562 224.006 300.013 223.571 300.131C219.978 301.11 140.132 320.951 134.863 322.261C134.823 323.133 134.97 324.775 136.082 327.298ZM140.424 325.033C140.488 324.899 140.609 324.801 140.754 324.764L222.754 304.265C222.991 304.205 223.234 304.326 223.332 304.546L243.6 350.303C243.658 350.434 243.657 350.583 243.597 350.714C243.537 350.844 243.424 350.943 243.287 350.984L163.495 374.978C163.447 374.993 163.399 375 163.351 375C163.16 375 162.979 374.89 162.896 374.708L140.42 325.458C140.358 325.322 140.36 325.167 140.424 325.033ZM133.863 322.822C133.909 323.9 134.202 325.512 135.168 327.702C136.904 331.637 158.313 375.728 161.302 381.882C161.173 384.094 162.598 385.095 162.785 385.269C160.938 385.485 160.079 384.547 159.863 384.232C159.531 383.748 134.31 331.407 132.848 327.019C132.093 324.758 133.037 323.474 133.863 322.822ZM210.52 457.995C210.269 457.001 211.708 455.589 214.47 454.12C234.096 443.682 258.759 441.373 278.052 440.526C278.602 440.502 279.028 440.038 279.007 439.488L284.165 439.286C284.188 439.838 284.661 440.291 285.202 440.246C290.518 440.047 294.491 439.869 296.742 439.394C303.863 437.895 308.001 435.617 310.001 434.482V434.475C313.001 438.269 322.512 445.438 345.591 445.438C348.787 445.438 352.219 445.3 355.933 444.997C361.769 444.521 368.446 443.466 375.807 441.87C373.122 446.517 370.484 449.818 368.884 451.823L368.217 452.66C366.127 455.319 364.945 460.261 367.291 464.825C368.29 466.767 370.009 468.805 372.889 470.609C354.061 470.651 310.597 470.429 273.83 468.409C218.292 465.359 211.054 460.11 210.52 457.995ZM224.283 394.386L218.491 396.472L165.927 379.567L196.231 370.654C195.055 372.24 194.548 373.761 194.34 374.722C193.931 376.614 194.055 378.912 195.086 379.648C196.4 380.587 198.765 380.524 201.503 380.446C203.884 380.381 207.143 380.292 207.849 381.297C208.738 382.565 214.9 387.838 224.283 394.386ZM163.292 381.968C163.172 380.5 164.222 380.068 164.222 380.068L218 397.364V402.139L165.172 384.446C164.003 383.644 163.361 382.811 163.292 381.968ZM219 402.2V397.351L225.291 395.086C226.86 396.169 228.506 397.281 230.235 398.416L230.218 398.41L219 402.2ZM253.788 384.827L278.896 375.788C279.334 376.439 280.471 377.533 283.375 378.393C283.559 379.028 283.697 379.674 283.877 380.323L283.837 380.309L262.765 387.422C261.21 386.984 259.623 386.533 258.025 386.07C256.546 385.642 255.14 385.228 253.788 384.827ZM250.514 354.69C250.682 354.64 250.821 354.537 250.94 354.414L251.037 354.589L276.654 364.3C277.496 369.645 278.303 373.645 278.551 374.851L252.174 384.346C236.48 379.631 229.797 376.841 228.923 375.843C228.338 375.173 227.745 374.29 227.12 373.354C225.064 370.28 222.262 366.114 216.256 364.766L250.514 354.69ZM143 110H126C124.896 110 124 109.104 124 108C124 106.896 124.896 106 126 106H143C144.104 106 145 106.896 145 108C145 109.104 144.104 110 143 110ZM254 122H237C235.895 122 235 121.104 235 120C235 118.896 235.895 118 237 118H254C255.104 118 256 118.896 256 120C256 121.104 255.104 122 254 122ZM193 136H126C124.896 136 124 135.105 124 134C124 132.895 124.896 132 126 132H193C194.104 132 195 132.895 195 134C195 135.105 194.104 136 193 136ZM263 157H216C214.895 157 214 156.105 214 155C214 153.895 214.895 153 216 153H263C264.104 153 265 153.895 265 155C265 156.105 264.104 157 263 157ZM229 169H179C177.895 169 177 168.105 177 167C177 165.895 177.895 165 179 165H229C230.104 165 231 165.895 231 167C231 168.105 230.104 169 229 169ZM171 169H160C158.895 169 158 168.105 158 167C158 165.895 158.895 165 160 165H171C172.104 165 173 165.895 173 167C173 168.105 172.104 169 171 169ZM201 202H126C124.896 202 124 201.105 124 200C124 198.895 124.896 198 126 198H201C202.104 198 203 198.895 203 200C203 201.105 202.104 202 201 202ZM215 225H164C162.895 225 162 224.105 162 223C162 221.895 162.895 221 164 221H215C216.104 221 217 221.895 217 223C217 224.105 216.104 225 215 225ZM158 225H126C124.896 225 124 224.105 124 223C124 221.895 124.896 221 126 221H158C159.104 221 160 221.895 160 223C160 224.105 159.104 225 158 225ZM182 234H126C124.896 234 124 233.105 124 232C124 230.895 124.896 230 126 230H182C183.104 230 184 230.895 184 232C184 233.105 183.104 234 182 234ZM212 265H161C159.895 265 159 264.104 159 263C159 261.896 159.895 261 161 261H212C213.104 261 214 261.896 214 263C214 264.104 213.104 265 212 265ZM154 265H143C141.895 265 141 264.104 141 263C141 261.896 141.895 261 143 261H154C155.104 261 156 261.896 156 263C156 264.104 155.104 265 154 265Z" fill="#EBA417"/>
    <path d="M141.58 325.589L163.625 373.896L242.456 350.191L222.588 305.338L141.58 325.589ZM261.792 415.915L236.013 423.812L235.989 430.722L271.087 419.778C267.948 418.583 264.843 417.287 261.792 415.915ZM182.226 412.719C182.415 412.199 182.991 411.935 183.508 412.121L233.99 430.477L234.014 423.613L129 385.247V392.3L178.218 410.198C178.737 410.386 179.005 410.96 178.816 411.479L182.226 412.719ZM259.054 414.655C249.272 410.068 240.14 404.793 232.362 399.798L218.913 404.34C218.809 404.375 218.379 404.375 218.276 404.341L165.588 386.696L165.305 386.787C164.262 387.122 163.287 387.293 162.409 387.293C159.261 387.292 158.291 385.16 158.251 385.069C158.029 384.612 156.71 381.897 154.765 377.879L131.794 384.14L235.279 421.948L259.054 414.655ZM266.18 388.376C276.133 391.123 284.359 393.148 286.646 393.476C286.681 391.862 285.652 387.138 284.352 382.239L266.18 388.376ZM250.635 352.058C250.717 352.246 250.795 352.428 250.866 352.603C251.04 352.582 251.193 352.575 251.258 352.599L276.28 362.157C275.491 357.24 274.585 351.4 273.734 345.466L250.635 352.058ZM396.605 272.824C398.036 273.394 400.937 274.697 404.053 276.929C403.811 277.344 403.878 277.879 404.26 278.196C405.764 279.442 407.271 280.961 408.74 282.712C408.937 282.947 409.22 283.069 409.507 283.069C409.734 283.069 409.961 282.992 410.149 282.835C410.182 282.808 410.198 282.77 410.226 282.739C410.704 283.342 411.165 283.974 411.602 284.639C411.585 284.649 411.566 284.651 411.55 284.662C411.1 284.981 410.992 285.72 411.312 286.171C415.01 291.394 418.594 297.876 422.068 306.875C422.068 306.875 420.589 307.262 419.79 307.485C397.044 313.851 375.7 339.411 384.012 392.212C387.403 413.75 382.459 429.359 377.092 439.549C369.616 441.167 361.461 442.553 355.752 443.018C323.485 445.66 312.446 435.616 311.257 432.789C311.18 432.582 310.959 431.469 311.262 425.786C335.665 418.311 328.978 379.389 328.822 378.345C328.498 376.182 323.36 334.358 316.536 320.679C316.289 320.185 315.688 319.981 315.194 320.23C314.7 320.476 314.499 321.077 314.746 321.571C320.907 333.921 325.913 371.376 326.725 377.707C323.611 378.323 312.873 380.256 303.377 379.624C284.865 378.397 280.904 375.163 280.381 374.651C279.852 371.593 274.453 340.16 273.022 322.935C272.004 310.683 282.894 304.531 299.377 295.219C303.727 292.763 308.643 289.985 313.772 286.843C316.414 287.44 328.284 289.689 339.637 284.922C350.438 280.386 354.357 274.914 355.37 273.2C357.195 273.029 359.268 272.712 361.636 272.349C370.634 270.973 382.954 269.088 395.341 273.42C395.857 273.601 396.416 273.332 396.605 272.824Z" fill="white"/>
    <path d="M404.261 278.196C403.836 277.843 403.778 277.213 404.13 276.788C404.482 276.364 405.111 276.303 405.537 276.656C407.133 277.979 408.727 279.584 410.272 281.426C410.627 281.849 410.573 282.48 410.149 282.835C409.961 282.992 409.734 283.069 409.507 283.069C409.221 283.069 408.938 282.948 408.74 282.712C407.271 280.961 405.765 279.441 404.261 278.196ZM222.008 314.279L187.383 322.919C186.847 323.053 186.521 323.596 186.655 324.132C186.768 324.586 187.176 324.89 187.624 324.89C187.705 324.89 187.786 324.88 187.867 324.861L222.492 316.221C223.028 316.086 223.354 315.544 223.22 315.008C223.087 314.472 222.543 314.147 222.008 314.279ZM468.256 458.488C459.439 468.54 438.273 474.595 407.045 475.999C404.786 476.101 402.647 476.148 400.626 476.149C389.474 476.149 381.869 474.675 376.697 472.545C374.192 472.56 370.598 472.573 366.132 472.573C345.885 472.573 307.872 472.282 273.718 470.406C217.247 467.303 209.497 462.116 208.58 458.484C207.801 455.4 212.113 453.106 213.53 452.353C233.51 441.727 258.46 439.382 277.964 438.527C278.5 438.487 278.982 438.929 279.007 439.482C279.031 440.034 278.604 440.501 278.052 440.525C258.758 441.372 234.095 443.681 214.47 454.119C211.709 455.588 210.269 457 210.52 457.994C211.054 460.109 218.292 465.358 273.829 468.409C310.596 470.43 354.06 470.651 372.888 470.609C370.008 468.805 368.289 466.767 367.29 464.825C364.943 460.26 366.126 455.319 368.216 452.66L368.883 451.823C370.483 449.818 373.121 446.516 375.806 441.87C368.445 443.466 361.768 444.52 355.932 444.997C352.218 445.3 348.787 445.438 345.59 445.438C322.511 445.438 313 438.269 310 434.475V434.482C308 435.617 303.862 437.895 296.741 439.394C294.49 439.869 290.517 440.046 285.201 440.246C284.659 440.291 284.185 439.837 284.164 439.284C284.143 438.732 284.574 438.268 285.126 438.248C290.343 438.052 294.198 437.879 296.294 437.438C303.659 435.888 307.837 433.467 309.195 432.576C309.086 431.608 309.058 429.817 309.233 426.297C307.1 426.769 304.824 427.024 302.382 427.024C300.997 427.024 299.564 426.948 298.083 426.796C297.534 426.739 297.134 426.248 297.19 425.699C297.246 425.149 297.727 424.761 298.287 424.805C302.604 425.248 308.343 424.469 310.036 424.057C331.72 418.78 327.91 385.846 327.009 379.693C323.67 380.357 312.982 382.263 303.243 381.621C295.297 381.094 285.87 379.304 285.612 379.24C289.935 394.439 288.514 395.07 287.739 395.415C285.615 396.347 231.213 381.502 227.414 377.159C226.743 376.392 226.117 375.456 225.454 374.465C222.497 370.041 218.814 364.532 206.941 366.858C200.351 368.149 197.766 371.278 196.758 373.676C195.83 375.884 196.132 377.663 196.326 378.071C197.167 378.564 199.436 378.502 201.447 378.446C204.751 378.354 208.161 378.26 209.485 380.147C210.819 382.048 250.85 415.561 291.427 423.707C291.969 423.815 292.32 424.343 292.211 424.885C292.103 425.425 291.576 425.778 291.034 425.668C285.409 424.539 279.749 422.901 274.172 420.916L235.546 432.955C235.45 432.985 235.019 432.979 234.908 432.939L182.824 414C182.305 413.811 182.037 413.238 182.226 412.719C182.415 412.199 182.991 411.935 183.508 412.121L233.99 430.477L234.014 423.613L129 385.247V392.3L178.218 410.198C178.737 410.386 179.005 410.96 178.816 411.479C178.628 411.999 178.053 412.266 177.534 412.077L127.657 393.939C127.262 393.795 126.999 393.42 126.999 392.999V383.999C126.999 383.453 127.437 383.009 127.982 382.999L153.878 376.045C146.464 360.715 132.184 331.048 131.051 327.649C129.623 323.366 130.625 321.467 134.258 320.362C135.097 320.106 219.455 299.186 223.07 298.201C223.676 298.036 224.251 297.974 224.778 297.952C226.687 297.874 227.919 299.562 228.458 300.696C229.454 302.794 245.266 339.775 249.7 349.926L273.449 343.452C272.421 336.142 271.506 328.84 271.029 323.099C269.905 309.57 281.238 303.167 298.394 293.476C302.722 291.031 312.432 285.224 312.946 284.916C313.848 284.373 314.093 283.408 313.751 282.17C312.892 279.048 307.837 274.341 300.951 273.996C299.993 273.948 299.028 273.91 298.062 273.871C288.752 273.497 279.124 273.112 273.419 264.552C267.65 255.899 273.412 235.789 274.481 232.286C269.447 225.915 266.492 220.163 265.667 215.117C265.49 213.192 265.569 212.025 266.471 211.549C267.423 211.048 268.309 211.782 269.337 212.631C271.429 214.358 272.648 214.963 273.922 213.741C274.751 212.945 275.718 211.565 276.838 209.967C281.007 204.019 287.307 195.031 300.415 194.078C300.967 194.045 301.444 194.452 301.485 195.003C301.524 195.554 301.11 196.033 300.559 196.073C288.398 196.957 282.427 205.477 278.476 211.115C277.296 212.799 276.276 214.253 275.307 215.183C272.524 217.857 269.22 215.278 267.591 213.787C268.033 218.778 271.186 224.807 275.782 230.708C275.782 230.708 281.001 237.684 287.124 238.816C286.719 236.222 288.491 233.518 291.586 232.173C295.064 230.662 299.698 231.159 302.208 235.677C304.245 239.345 304.531 242.676 303.058 245.579C301.12 249.399 296.724 251.159 295.066 251.458C294.602 252.153 294.092 255.5 295.567 258.752C296.736 261.329 299.437 264.323 305.684 263.997C313.382 263.584 314.558 260.352 315.818 256.93C316.713 254.496 317.677 252.188 320.923 251.034C326.22 249.152 330.183 251.45 332.189 252.252C338.292 248.531 342.152 242.378 342.769 235.246C343.34 228.648 340.949 222.267 336.527 218.595C332.188 214.992 329.537 214.426 327.406 213.971C324.462 213.342 322.685 212.734 320.415 207.559C317.562 201.055 311.985 196.888 305.113 196.128C304.564 196.067 304.168 195.573 304.228 195.024C304.289 194.475 304.796 194.082 305.332 194.14C312.934 194.981 319.099 199.579 322.246 206.755C324.215 211.244 325.421 211.502 327.823 212.015C330.045 212.49 333.087 213.139 337.803 217.057C342.796 221.203 345.397 228.068 344.761 235.419C344.093 243.135 339.994 249.791 333.484 253.826C334.257 255.402 335.739 257.221 337.901 259.245C338.304 259.623 338.325 260.255 337.947 260.659C337.57 261.061 336.937 261.082 336.534 260.705C333.945 258.281 332.225 256.064 331.42 254.113C330.623 253.524 327.169 251.344 321.525 252.957C319.191 253.624 318.543 255.388 317.72 257.62C316.426 261.136 314.817 265.511 305.804 265.994C296.848 266.476 293.137 260.792 292.649 255.315C292.413 252.665 292.931 249.715 294.627 249.503C295.615 249.379 299.628 247.92 301.276 244.673C302.43 242.4 302.155 239.699 300.46 236.648C298.429 232.991 294.84 232.94 292.383 234.007C290.303 234.911 288.566 236.887 289.202 238.938C289.657 240.402 288.171 240.996 286.91 240.996C286.909 240.996 286.907 240.996 286.907 240.996C283.984 240.996 278.939 237.782 275.987 234.363C274.424 239.958 270.391 256.445 275.083 263.483C280.224 271.194 288.928 271.523 298.143 271.892C299.117 271.931 300.087 271.959 301.051 272.008C308.312 272.371 314.478 277.281 315.68 281.642C316.041 282.953 315.937 284.152 315.406 285.128L315.399 285.131C319.276 285.858 329.27 287.102 338.865 283.073C348.286 279.116 352.145 274.432 353.367 272.61C351.351 271.449 346.285 268.438 341.539 264.863C341.098 264.53 341.01 263.903 341.342 263.462C341.673 263.021 342.302 262.932 342.742 263.265C348.025 267.245 353.702 270.506 354.967 271.22C356.786 271.061 358.899 270.742 361.336 270.369C370.541 268.96 383.146 267.03 396.004 271.529C396.525 271.711 396.8 272.282 396.618 272.803C396.435 273.324 395.866 273.6 395.344 273.417C382.957 269.085 370.637 270.971 361.639 272.346C359.272 272.708 357.199 273.026 355.373 273.197C354.359 274.911 350.44 280.383 339.64 284.919C328.286 289.687 316.416 287.437 313.775 286.84C308.645 289.983 303.729 292.76 299.38 295.216C282.897 304.528 272.007 310.68 273.025 322.932C274.456 340.157 279.855 371.59 280.384 374.648C280.907 375.16 284.868 378.393 303.38 379.621C312.875 380.253 323.613 378.32 326.728 377.704C325.916 371.373 320.91 333.918 314.749 321.568C314.502 321.074 314.703 320.473 315.197 320.227C315.691 319.978 316.292 320.182 316.539 320.676C323.363 334.355 328.501 376.179 328.825 378.342C328.981 379.387 335.669 418.309 311.265 425.783C310.962 431.466 311.183 432.579 311.26 432.786C312.449 435.612 323.489 445.656 355.755 443.015C361.464 442.55 369.619 441.164 377.095 439.546C382.462 429.356 387.405 413.747 384.015 392.209C375.704 339.407 397.047 313.848 419.793 307.482C420.592 307.258 422.071 306.872 422.071 306.872C418.597 297.872 415.013 291.391 411.315 286.168C410.996 285.717 411.103 284.978 411.553 284.659C412.005 284.339 412.628 284.447 412.948 284.897C416.779 290.308 420.528 297.53 424.097 306.342C440.572 303.083 449.585 309.551 455.037 314.924C465.616 325.35 462.979 336.203 459.925 348.771C459.263 351.499 458.577 354.319 457.983 357.279C457.305 360.648 456.966 364.672 456.974 368.746C456.975 369.299 456.529 369.997 455.976 369.997C455.975 369.997 455.975 369.997 455.974 369.997C455.422 369.997 454.975 369.302 454.974 368.75C454.966 364.542 455.319 360.509 456.022 357.009C456.625 354.011 457.315 351.109 457.982 348.363C461.012 335.892 463.406 326.011 453.633 316.382C448.077 310.906 438.578 304.201 420.331 309.311C398.413 315.446 377.882 340.345 385.99 391.851C391.479 426.725 375.646 446.556 370.444 453.075L369.788 453.898C368.362 455.711 366.995 459.875 369.069 463.911C371.283 468.216 379.145 475.251 406.957 474.001C437.627 472.622 458.305 466.801 466.754 457.168C469.98 453.489 471.411 449.234 471.006 444.522C470.509 438.74 468.021 430.138 465.14 420.179C461.908 409.005 458.243 396.341 456.314 383.991C456.229 383.445 456.602 382.934 457.148 382.848C457.694 382.768 458.206 383.137 458.291 383.682C460.201 395.907 463.846 408.506 467.062 419.622C469.972 429.683 472.486 438.371 473 444.349C473.45 449.628 471.855 454.384 468.256 458.488ZM250.635 352.058C250.717 352.246 250.795 352.428 250.866 352.603C251.04 352.582 251.193 352.575 251.258 352.599L276.28 362.157C275.491 357.24 274.585 351.4 273.734 345.466L250.635 352.058ZM159.862 384.231C160.078 384.546 160.938 385.484 162.784 385.268C162.598 385.094 161.172 384.093 161.301 381.881C158.312 375.728 136.903 331.636 135.167 327.701C134.201 325.512 133.909 323.899 133.862 322.821C133.036 323.472 132.092 324.757 132.846 327.017C134.309 331.406 159.53 383.747 159.862 384.231ZM261.792 415.915L236.013 423.812L235.989 430.722L271.087 419.778C267.948 418.583 264.843 417.287 261.792 415.915ZM232.362 399.798L218.913 404.34C218.809 404.375 218.379 404.375 218.276 404.341L165.588 386.696L165.305 386.787C164.262 387.122 163.287 387.293 162.409 387.293C159.261 387.292 158.291 385.16 158.251 385.069C158.029 384.612 156.71 381.897 154.765 377.879L131.794 384.14L235.279 421.948L259.053 414.657C249.272 410.068 240.139 404.793 232.362 399.798ZM165.172 384.446L218 402.14V397.365L164.222 380.068C164.222 380.068 163.172 380.501 163.292 381.968C163.361 382.811 164.003 383.644 165.172 384.446ZM225.291 395.087L219 397.352V402.201L230.218 398.412L230.235 398.418C228.506 397.282 226.86 396.17 225.291 395.087ZM196.231 370.653L165.927 379.566L218.491 396.471L224.283 394.385C214.9 387.837 208.738 382.564 207.848 381.295C207.142 380.29 203.884 380.379 201.502 380.444C198.764 380.522 196.399 380.586 195.085 379.646C194.054 378.911 193.93 376.612 194.339 374.72C194.548 373.761 195.055 372.239 196.231 370.653ZM248.899 353.079C248.853 352.97 248.803 352.857 248.752 352.742C246.25 347.135 226.822 301.828 226.578 301.394C225.547 299.562 224.006 300.013 223.571 300.131C219.978 301.11 140.132 320.951 134.863 322.261C134.823 323.132 134.97 324.775 136.083 327.297C137.725 331.02 157.113 370.965 161.616 380.238C162.019 379.235 162.662 378.593 162.694 378.546C162.938 378.187 200.327 367.11 200.327 367.11C201.945 366.189 204.251 365.155 210.242 364.406L248.899 353.079ZM252.173 384.345L278.55 374.85C278.303 373.644 277.496 369.644 276.653 364.299L251.036 354.588L250.939 354.413C250.82 354.536 250.681 354.64 250.513 354.689L216.255 364.764C222.261 366.112 225.063 370.278 227.119 373.352C227.744 374.289 228.336 375.171 228.922 375.841C229.796 376.84 236.479 379.63 252.173 384.345ZM262.766 387.422L283.838 380.309L283.878 380.323C283.698 379.675 283.561 379.028 283.376 378.393C280.471 377.534 279.335 376.44 278.897 375.788L253.789 384.827C255.141 385.228 256.548 385.642 258.027 386.07C259.624 386.533 261.211 386.984 262.766 387.422ZM284.352 382.238L266.179 388.376C276.132 391.123 284.358 393.148 286.645 393.476C286.681 391.861 285.652 387.138 284.352 382.238ZM171.234 334.977C171.347 335.431 171.755 335.735 172.203 335.735C172.284 335.735 172.365 335.725 172.446 335.706L226.492 322.222C227.028 322.088 227.354 321.545 227.22 321.009C227.087 320.474 226.543 320.154 226.008 320.28L171.962 333.764C171.426 333.897 171.1 334.44 171.234 334.977ZM243.6 350.304C243.658 350.435 243.657 350.584 243.597 350.715C243.537 350.845 243.424 350.944 243.287 350.985L163.495 374.979C163.447 374.994 163.399 375.001 163.351 375.001C163.16 375.001 162.979 374.891 162.896 374.709L140.42 325.459C140.359 325.323 140.36 325.168 140.424 325.034C140.488 324.9 140.609 324.802 140.754 324.765L222.754 304.266C222.991 304.206 223.234 304.327 223.332 304.547L243.6 350.304ZM242.456 350.19L222.588 305.337L141.579 325.589L163.624 373.896L242.456 350.19ZM456.123 373.334C455.572 373.373 455.157 373.852 455.197 374.402C455.321 376.15 455.501 377.981 455.731 379.843C455.793 380.35 456.224 380.721 456.722 380.721C456.763 380.721 456.804 380.719 456.845 380.713C457.394 380.646 457.783 380.147 457.715 379.599C457.489 377.77 457.314 375.973 457.191 374.259C457.152 373.71 456.685 373.283 456.123 373.334ZM161.085 341.759C161.165 341.759 161.247 341.749 161.328 341.73L178.585 337.424C179.121 337.29 179.447 336.747 179.313 336.211C179.18 335.676 178.636 335.357 178.101 335.482L160.844 339.788C160.308 339.922 159.982 340.465 160.116 341.001C160.229 341.455 160.637 341.759 161.085 341.759ZM173.919 344.555C173.786 344.02 173.242 343.699 172.707 343.827L157.758 347.556C157.222 347.69 156.896 348.233 157.03 348.769C157.143 349.223 157.551 349.527 157.999 349.527C158.08 349.527 158.161 349.517 158.242 349.498L173.191 345.769C173.727 345.634 174.053 345.091 173.919 344.555ZM193.857 341.799L170.782 347.557C170.246 347.691 169.92 348.234 170.054 348.77C170.167 349.224 170.575 349.528 171.023 349.528C171.104 349.528 171.185 349.518 171.266 349.499L194.341 343.741C194.877 343.607 195.203 343.064 195.069 342.528C194.936 341.992 194.395 341.673 193.857 341.799ZM197.857 337.551L176.619 342.85C176.083 342.984 175.757 343.527 175.891 344.063C176.004 344.517 176.412 344.821 176.86 344.821C176.941 344.821 177.022 344.811 177.103 344.792L198.341 339.493C198.877 339.359 199.203 338.816 199.069 338.28C198.936 337.744 198.395 337.423 197.857 337.551ZM292.5 138H302C302 138.068 302 138.137 302 138.208C302 139.303 301.882 140.868 301.875 142.745C301.861 146.496 301.748 151.496 301.739 156.498C301.721 166.498 301.714 176.499 301.714 176.499C301.714 176.897 301.871 177.279 302.152 177.56C302.434 177.842 302.815 178 303.214 178H323.141C323.539 178 323.948 177.842 324.23 177.56C324.511 177.279 324.696 176.897 324.696 176.499C324.696 176.499 324.744 166.498 324.727 156.498C324.718 151.497 324.817 146.495 324.803 142.745C324.795 140.868 325 139.303 325 138.208C325 138.138 325 138.068 325 138H333.5C334.076 138 334.602 137.669 334.852 137.15C335.102 136.63 335.032 136.013 334.672 135.563L323.415 121.477C322.899 120.831 321.954 120.726 321.307 121.242C320.66 121.759 320.554 122.703 321.072 123.35L330.382 135H323.034C322.206 135 321.534 135.671 321.534 136.5C321.534 136.552 321.537 136.604 321.542 136.654C321.598 138.162 321.631 163.493 321.641 175H304.716C304.727 163.493 304.761 138.162 304.817 136.654C304.822 136.604 304.825 136.552 304.825 136.5C304.825 135.671 304.153 135 303.325 135H295.669L313.272 113.509L318.095 119.188C318.631 119.819 319.576 119.897 320.209 119.36C320.841 118.823 320.918 117.877 320.382 117.245L314.395 110.195C314.107 109.856 313.71 109.665 313.238 109.666C312.794 109.67 312.373 109.871 312.091 110.215L291.341 135.548C290.974 135.997 290.898 136.617 291.146 137.141C291.393 137.666 291.92 138 292.5 138Z" fill="#263238"/>
</svg>
